<svg xmlns="http://www.w3.org/2000/svg" xmlns:xlink="http://www.w3.org/1999/xlink" viewBox="0 0 1286.273 522"><defs><style>.a{fill:#8abd24;}.b{opacity:0.6;clip-path:url(#a);}.c,.d{fill:#9de117;}.c{opacity:0.21;}.d{opacity:0.34;}</style><clipPath id="a"><rect class="a" width="1286.274" height="522" transform="translate(9279.627 -8386)"/></clipPath></defs><g class="b" transform="translate(-9279.627 8386)"><path class="c" d="M0,0,616.849,1892.378,291.2,1958.824Z" transform="matrix(0.174, -0.985, 0.985, 0.174, 9075.357, -8222.319)"/><path class="d" d="M0,0,511.766,792.309l-270.177,27.82Z" transform="translate(9818.16 -8423.824) rotate(-45)"/><path class="d" d="M176.6-275.175,533.332,945.308-38.929,868.675Z" transform="translate(10342.767 -8110.742) rotate(106)"/><path class="d" d="M0,0,747.753,386.75,291.068,620.807Z" transform="matrix(-0.07, 0.998, -0.998, -0.07, 10837.972, -8291.456)"/><path class="d" d="M0,0,615.273,792.645,121.487,1009.967Z" transform="matrix(0.208, 0.978, -0.978, 0.208, 10411.904, -8539.061)"/><path class="d" d="M4.955-97.975,447.3,220.47l-170.95,791.57Z" transform="translate(9126.269 -7832.723) rotate(-76)"/></g></svg>